<?xml version="1.0" encoding="UTF-8"?>
<svg id="_ÎÓÈ_1" data-name="—ÎÓÈ_1" xmlns="http://www.w3.org/2000/svg" viewBox="0 0 68.11 77">
  <defs>
    <style>
      .cls-1 {
        fill: #040607;
      }

      .cls-1, .cls-2 {
        stroke-width: 0px;
      }

      .cls-2 {
        fill: #fff;
      }
    </style>
  </defs>
  <path class="cls-1" d="M59.59,26.31c-5.94-9.02-14.85-14.83-26.5-17.26L25.95.54c-.42-.51-1.13-.67-1.74-.42-.61.26-.98.88-.91,1.54l.82,7.72-6.1-4.94c-.5-.41-1.21-.45-1.76-.1-.54.35-.8,1.01-.64,1.64l2.4,9.17c-1.99,1.62-6.64,5.87-6.68,10.34C8.96,29.26,0,43.64,0,48.22c0,3.38,4.49,4.68,5,4.81.41.11.85.04,1.21-.19,0,.05.02.1.03.15.11.4.38.73.75.92l3.69,1.91c.6.31,1.33.18,1.79-.31l10.73-11.56c2.23.82,7.59,2.15,12.53-1.14-1.9,1.73-3.59,2.75-3.6,2.76-.89.46-21.94,11.38-26.55,29.56-.11.45-.01.92.27,1.29.28.37.72.58,1.18.58h58.08c.71,0,1.32-.49,1.47-1.19.26-1.2,6.12-29.58-6.99-49.5Z"/>
  <path class="cls-2" d="M19.74,28.86s5.31-2.05,6.39-5.78c-3.5-2.29-7.35,2.65-6.39,5.78Z"/>
  <path class="cls-2" d="M50.01,22.43c-1.4-1.27-2.8-2.37-4.16-3.3-2.7-1.87-5.17-3.07-6.94-3.78-1.77-.71-2.83-.97-2.83-.97-.08-.02-.16.02-.18.1-.03.08.02.16.1.19,0,0,1.02.33,2.7,1.17,1.67.84,4.02,2.16,6.52,4.15,2.52,1.97,5.16,4.63,7.5,7.82,1.17,1.6,2.23,3.35,3.19,5.19.47.93.91,1.87,1.33,2.83.37.98.81,1.94,1.11,2.95.33,1,.66,2,.9,3.02l.39,1.52c.1.51.2,1.02.29,1.53.09.51.2,1.01.28,1.52.07.51.14,1.01.21,1.52.07.5.14,1,.22,1.49.05.5.1.99.15,1.48.26,1.95.35,3.87.51,5.68.07,1.82.18,3.54.18,5.14.01.8.03,1.57.04,2.3-.01.73-.04,1.42-.03,2.08,0,1.31-.01,2.45-.05,3.4-.05,1.89-.03,2.99-.03,2.99h0c0,.07.04.13.11.15.08.02.16-.02.19-.1,0,0,.33-1.04.8-2.89.12-.46.25-.98.39-1.54.11-.57.22-1.18.35-1.83.25-1.31.5-2.8.64-4.44.07-.82.2-1.67.23-2.56.03-.89.06-1.81.09-2.76.04-.95-.03-1.92-.06-2.92,0-1-.14-2.01-.25-3.04-.06-.52-.13-1.03-.19-1.56-.08-.52-.19-1.04-.3-1.57-.19-1.05-.43-2.11-.73-3.16-.14-.53-.28-1.06-.43-1.59l-.51-1.57c-.32-1.06-.72-2.09-1.14-3.12-.37-1.04-.89-2.03-1.33-3.04-.49-.99-1.01-1.96-1.55-2.9-1.11-1.88-2.32-3.65-3.62-5.25-1.32-1.59-2.66-3.08-4.08-4.33Z"/>
  <path class="cls-2" d="M6.78,43.45s-.25.23-.6.63c-.17.2-.34.45-.53.73-.19.28-.32.59-.49.91-.13.32-.37.62-.45.94-.05.32,0,.63.1.9.18.54.61.9.61.9.05.05.14.05.2.01,0,0,.12-.08.28-.2.16-.12.34-.3.5-.51.16-.21.31-.46.36-.74.04-.28-.06-.61-.05-.92.02-.31.03-.62.05-.92.03-.29.04-.58.06-.82.08-.47.12-.82.12-.82h0s0-.07-.03-.09c-.04-.04-.1-.04-.15,0Z"/>
</svg>