<?xml version="1.0" encoding="UTF-8"?>
<svg id="_ÎÓÈ_1" data-name="—ÎÓÈ_1" xmlns="http://www.w3.org/2000/svg" viewBox="0 0 48 62">
  <defs>
    <style>
      .cls-1 {
        fill: #040607;
        stroke-width: 0px;
      }
    </style>
  </defs>
  <path class="cls-1" d="M33.44,33.93c2.26-2.39,3.56-5.58,3.56-8.93,0-4.98-2.82-9.42-7.12-11.59,1.34-1.46,2.12-3.38,2.12-5.41,0-4.41-3.59-8-8-8s-8,3.59-8,8c0,2.03.79,3.96,2.12,5.41-4.3,2.17-7.12,6.61-7.12,11.59,0,3.35,1.3,6.54,3.56,8.93C5.75,37.67,0,46.23,0,56c0,1.61.16,3.22.48,4.8.14.7.76,1.2,1.47,1.2h44.1c.71,0,1.33-.5,1.47-1.2.32-1.57.48-3.19.48-4.8,0-9.77-5.75-18.33-14.56-22.07Z"/>
</svg>