<?xml version="1.0" encoding="UTF-8"?>
<svg id="_ÎÓÈ_1" data-name="—ÎÓÈ_1" xmlns="http://www.w3.org/2000/svg" viewBox="0 0 73.71 79.5">
  <defs>
    <style>
      .cls-1 {
        fill: #040607;
      }

      .cls-1, .cls-2 {
        stroke-width: 0px;
      }

      .cls-2 {
        fill: #fff;
      }
    </style>
  </defs>
  <path class="cls-2" d="M58.88,69.56c-.2-.62-.38-1.24-.54-1.87h-10.7c3.95.32,8.14.89,11.25,1.87Z"/>
  <path class="cls-2" d="M14.83,69.56c3.1-.98,7.29-1.54,11.25-1.87h-10.71c-.16.62-.34,1.25-.54,1.87Z"/>
  <path class="cls-2" d="M36.85,20c-4.15,0-7.53,2.98-7.53,6.64,0,.67.07,1.5.18,2.43,3.27,3.07,5.79,7.09,7.35,11.83,1.56-4.74,4.08-8.77,7.35-11.83.12-.93.18-1.76.18-2.43,0-3.66-3.38-6.64-7.53-6.64Z"/>
  <path class="cls-2" d="M38.35,58.03c7.9.11,15.13,1.05,19.71,2.56.84-2.23,2.73-4.66,4.84-7.35,5.71-7.3,12.19-15.58,3.61-24.67-2.62-2.77-7.52-3.53-12.48-1.93-8.39,2.71-14.25,10.58-15.67,21.08v10.31Z"/>
  <path class="cls-2" d="M35.35,47.72c-1.43-10.5-7.28-18.38-15.67-21.08-4.97-1.6-9.87-.84-12.48,1.93-8.58,9.09-2.1,17.36,3.61,24.67,2.11,2.7,4,5.12,4.84,7.35,4.57-1.5,11.81-2.45,19.71-2.56v-10.31Z"/>
  <path class="cls-2" d="M26.07,67.69c4.71-.38,9.06-.43,10.78-.43s6.07.04,10.78.43h10.75c-.34-1.35-.58-2.71-.7-4.07-4.44-1.62-12.28-2.6-20.83-2.6s-16.39.99-20.83,2.6c-.12,1.35-.37,2.71-.7,4.07h10.75Z"/>
  <path class="cls-2" d="M60.39,73.38c-1.72-1.19-9.66-3.12-23.54-3.12s-21.81,1.93-23.54,3.12c1.72,1.19,9.65,3.12,23.54,3.12s21.82-1.93,23.54-3.12Z"/>
  <path class="cls-1" d="M53.11,23.79c-2.05.66-3.96,1.61-5.72,2.77-.04-4.49-3.45-8.25-8.03-9.27v-4.29h5.5c1.38,0,2.5-1.12,2.5-2.5s-1.12-2.5-2.5-2.5h-5.5V2.5c0-1.38-1.12-2.5-2.5-2.5s-2.5,1.12-2.5,2.5v5.5h-5.5c-1.38,0-2.5,1.12-2.5,2.5s1.12,2.5,2.5,2.5h5.5v4.29c-4.58,1.02-7.99,4.78-8.03,9.27-1.76-1.17-3.67-2.11-5.72-2.77-6.16-1.99-12.13-.94-15.59,2.73-10.35,10.96-2.38,21.14,3.43,28.57,2.34,2.99,4.53,5.8,4.64,7.62-.09,1.53-.34,3.07-.74,4.6h0c-.41,1.56-.98,3.1-1.72,4.6-.27.35-.43.72-.49,1.12,0,.04-.01.09-.02.13,0,.07-.03.14-.03.22,0,0,0,.01,0,.02,0,.05.01.1.02.15.44,5.66,22.32,5.95,26.75,5.95s26.31-.29,26.75-5.95c0-.05.02-.1.02-.15,0,0,0-.01,0-.02,0-.07-.02-.14-.03-.22,0-.04,0-.09-.02-.13-.06-.4-.23-.78-.49-1.12-.73-1.5-1.31-3.04-1.72-4.6h0c-.4-1.53-.65-3.08-.74-4.61.11-1.82,2.3-4.63,4.64-7.62,5.81-7.43,13.77-17.61,3.43-28.57-3.46-3.67-9.43-4.71-15.59-2.73ZM29.32,26.64c0-3.66,3.38-6.64,7.53-6.64s7.53,2.98,7.53,6.64c0,.67-.07,1.5-.18,2.43-3.27,3.07-5.79,7.09-7.35,11.83-1.56-4.74-4.08-8.77-7.35-11.83-.12-.93-.18-1.76-.18-2.43ZM58.88,69.56c-3.1-.98-7.29-1.54-11.25-1.87-4.71-.38-9.06-.43-10.78-.43s-6.07.04-10.78.43c-3.95.32-8.14.89-11.25,1.87.2-.62.38-1.24.54-1.87h-.05c.34-1.35.58-2.71.7-4.07,4.44-1.62,12.28-2.6,20.83-2.6s16.39.99,20.83,2.6c.12,1.35.37,2.71.7,4.07h-.05c.16.62.34,1.25.54,1.87ZM10.8,53.24c-5.71-7.3-12.19-15.58-3.61-24.67,2.62-2.77,7.52-3.53,12.48-1.93,8.39,2.71,14.25,10.58,15.67,21.08v10.31c-7.9.11-15.13,1.05-19.71,2.56-.84-2.23-2.73-4.66-4.84-7.35ZM36.85,76.5c-13.88,0-21.82-1.93-23.54-3.12,1.72-1.19,9.66-3.12,23.54-3.12s21.81,1.93,23.54,3.12c-1.72,1.19-9.65,3.12-23.54,3.12ZM62.9,53.24c-2.11,2.7-4,5.12-4.84,7.35-4.57-1.5-11.81-2.45-19.71-2.56v-10.31c1.43-10.5,7.28-18.38,15.67-21.08,4.97-1.6,9.87-.84,12.48,1.93,8.58,9.09,2.1,17.36-3.61,24.67Z"/>
</svg>