<?xml version="1.0" encoding="UTF-8"?>
<svg id="_ÎÓÈ_1" data-name="—ÎÓÈ_1" xmlns="http://www.w3.org/2000/svg" viewBox="0 0 68.11 77">
  <defs>
    <style>
      .cls-1 {
        fill: #040607;
      }

      .cls-1, .cls-2 {
        stroke-width: 0px;
      }

      .cls-2 {
        fill: #fff;
      }
    </style>
  </defs>
  <path class="cls-2" d="M31.98,11.89c-.33-.07-.64-.25-.86-.51l-4.31-5.15.68,6.44c.06.6-.24,1.19-.78,1.48-.53.29-1.19.23-1.66-.15l-5.36-4.35,1.49,5.7c.16.59-.07,1.22-.56,1.59-1.82,1.34-6.51,5.55-6.26,8.87.02.32-.06.65-.23.92-4.3,6.72-11.13,18.51-11.13,21.51,0,.61,1.08,1.27,2.03,1.66l5.76-5.28c.55-.5,1.38-.53,1.96-.06.58.47.72,1.29.34,1.93l-3.3,5.51,1.26.65,10.66-11.49c.46-.49,1.18-.62,1.78-.32.02,0,2.23,1.1,5.07,1.1,5.6,0,9.74-4.24,11.97-12.27.18-.64.75-1.08,1.41-1.1.66-.03,1.25.41,1.46,1.04,3.47,10.64-9.28,18.29-9.83,18.61-.27.14-19.3,10.03-24.54,25.8h54.83c.95-5.56,4.17-29.4-6.79-46.05-5.57-8.45-14.01-13.86-25.09-16.06ZM27.57,23.49c-1.28,4.4-7.05,6.67-7.29,6.77-.17.07-.36.1-.54.1-.22,0-.45-.05-.66-.15-.37-.18-.66-.51-.78-.91-.53-1.73-.05-3.9,1.25-5.67,1.92-2.59,5-3.38,7.39-1.81.55.36.8,1.04.62,1.67Z"/>
  <path class="cls-2" d="M24,24.01c-.7.1-1.44.61-2.03,1.41-.2.27-.37.56-.51.86.92-.6,1.88-1.37,2.54-2.26Z"/>
  <path class="cls-1" d="M33.09,9.05L25.95.54c-.42-.51-1.13-.67-1.74-.42-.61.26-.98.88-.91,1.54l.82,7.72-6.1-4.94c-.5-.41-1.21-.45-1.76-.1-.54.35-.8,1.01-.64,1.64l2.4,9.17c-1.99,1.62-6.64,5.87-6.68,10.34C8.96,29.26,0,43.65,0,48.22c0,3.38,4.49,4.68,5,4.81.41.11.85.04,1.21-.19,0,.05.02.1.03.15.11.4.38.73.75.92l3.69,1.91c.6.31,1.33.18,1.79-.31l10.73-11.56c2.23.82,7.59,2.15,12.53-1.14-1.9,1.73-3.59,2.75-3.6,2.76-.89.46-21.94,11.38-26.55,29.56-.11.45-.01.92.27,1.29.28.37.72.58,1.18.58h58.08c.71,0,1.32-.49,1.47-1.19.26-1.2,6.12-29.58-6.99-49.5-5.94-9.02-14.85-14.83-26.5-17.26ZM63.87,74H9.04c5.24-15.77,24.26-25.65,24.54-25.8.54-.32,13.29-7.96,9.83-18.61-.21-.63-.8-1.06-1.46-1.04-.66.02-1.23.46-1.41,1.1-2.23,8.03-6.36,12.27-11.97,12.27-2.84,0-5.06-1.09-5.07-1.1-.6-.3-1.32-.17-1.78.32l-10.66,11.49-1.26-.65-4.76-2.11c-.95-.39-2.03-1.05-2.03-1.66,0-3,6.83-14.78,11.13-21.51.18-.27.26-.6.23-.92-.25-3.32,4.44-7.52,6.26-8.87.5-.36.72-.99.56-1.59l-1.49-5.7,5.36,4.35c.47.38,1.13.44,1.66.15.53-.29.84-.87.78-1.48l-.68-6.44,4.31,5.15c.22.26.52.44.86.51,11.08,2.21,19.53,7.61,25.09,16.06,10.96,16.65,7.74,40.49,6.79,46.05Z"/>
  <path class="cls-1" d="M27.57,23.49c-1.28,4.4-7.04,6.67-7.29,6.77-.17.06-.36.1-.54.1-.22,0-.45-.05-.66-.15-.37-.19-.65-.51-.77-.91-.53-1.73-.05-3.91,1.25-5.67,1.92-2.59,5-3.38,7.39-1.81.55.36.81,1.04.62,1.67Z"/>
</svg>