<?xml version="1.0" encoding="UTF-8"?>
<svg id="_ÎÓÈ_1" data-name="—ÎÓÈ_1" xmlns="http://www.w3.org/2000/svg" viewBox="0 0 48 62">
  <defs>
    <style>
      .cls-1 {
        fill: #040607;
      }

      .cls-1, .cls-2 {
        stroke-width: 0px;
      }

      .cls-2 {
        fill: #fff;
      }
    </style>
  </defs>
  <path class="cls-2" d="M30.53,34.46c3-2.08,4.97-5.54,4.97-9.46,0-5.38-3.7-9.89-8.7-11.14,2.19-1.05,3.7-3.27,3.7-5.86,0-3.59-2.91-6.5-6.5-6.5s-6.5,2.91-6.5,6.5c0,2.59,1.51,4.81,3.7,5.86-4.99,1.25-8.7,5.76-8.7,11.14,0,3.93,1.97,7.39,4.97,9.46-9.24,2.8-15.97,11.38-15.97,21.54,0,1.54.16,3.05.45,4.5h44.1c.29-1.45.45-2.96.45-4.5,0-10.16-6.73-18.74-15.97-21.54Z"/>
  <path class="cls-1" d="M46.05,62H1.95c-.71,0-1.33-.5-1.47-1.2-.32-1.57-.48-3.19-.48-4.8,0-9.77,5.75-18.34,14.56-22.07-2.26-2.39-3.56-5.58-3.56-8.93,0-4.98,2.82-9.42,7.12-11.59-1.34-1.46-2.12-3.38-2.12-5.41,0-4.41,3.59-8,8-8s8,3.59,8,8c0,2.03-.79,3.96-2.12,5.41,4.3,2.17,7.12,6.61,7.12,11.59,0,3.35-1.3,6.54-3.56,8.93,8.81,3.74,14.56,12.31,14.56,22.07,0,1.61-.16,3.23-.48,4.8-.14.7-.76,1.2-1.47,1.2ZM3.21,59h41.57c.14-.99.21-2,.21-3,0-9.32-5.99-17.4-14.91-20.1-.55-.17-.96-.63-1.05-1.2-.09-.57.16-1.14.63-1.47,2.71-1.87,4.33-4.95,4.33-8.23,0-4.59-3.11-8.57-7.56-9.69-.61-.15-1.06-.68-1.13-1.3-.06-.63.27-1.23.84-1.5,1.75-.84,2.85-2.57,2.85-4.51,0-2.76-2.24-5-5-5s-5,2.24-5,5c0,1.94,1.09,3.66,2.85,4.51.57.27.91.87.84,1.5-.06.63-.51,1.15-1.13,1.3-4.45,1.12-7.56,5.1-7.56,9.69,0,3.28,1.62,6.36,4.33,8.23.47.33.72.9.63,1.47-.09.57-.5,1.04-1.05,1.2-8.92,2.7-14.91,10.78-14.91,20.1,0,1,.07,2.01.21,3Z"/>
</svg>