<?xml version="1.0" encoding="UTF-8"?>
<svg id="_ÎÓÈ_1" data-name="—ÎÓÈ_1" xmlns="http://www.w3.org/2000/svg" viewBox="0 0 53 66.94">
  <defs>
    <style>
      .cls-1 {
        fill: #040607;
      }

      .cls-1, .cls-2 {
        stroke-width: 0px;
      }

      .cls-2 {
        fill: #fff;
      }
    </style>
  </defs>
  <path class="cls-2" d="M45,3h-2v2.5c0,.83-.67,1.5-1.5,1.5h-10c-.83,0-1.5-.67-1.5-1.5v-2.5h-7v2.5c0,.83-.67,1.5-1.5,1.5h-10c-.83,0-1.5-.67-1.5-1.5v-2.5h-2v9h37V3Z"/>
  <rect class="cls-2" x="16" y="24.94" width="21" height="15"/>
  <rect class="cls-2" x="8" y="50.88" width="37" height="6"/>
  <rect class="cls-2" x="3" y="59.94" width="47" height="4"/>
  <polygon class="cls-2" points="37.88 42.94 15.12 42.94 10.14 47.88 42.86 47.88 37.88 42.94"/>
  <polygon class="cls-2" points="37.78 21.94 43.37 15 9.63 15 15.22 21.94 37.78 21.94"/>
  <path class="cls-1" d="M51.5,56.94h-3.5v-7.56c0-.1-.01-.2-.03-.29,0,0,0,0,0,0-.03-.13-.07-.25-.13-.37-.01-.03-.03-.05-.04-.08-.07-.12-.14-.22-.24-.32,0,0,0,0,0,0l-7.56-7.5v-16.85l7.67-9.53s.01-.03.02-.04c.08-.1.14-.21.19-.33,0,0,0,0,0-.01.04-.11.07-.22.09-.34,0-.04,0-.07.01-.11,0-.04.01-.07.01-.11V1.5c0-.83-.67-1.5-1.5-1.5h-5c-.83,0-1.5.67-1.5,1.5v2.5h-7V1.5c0-.83-.67-1.5-1.5-1.5h-10c-.83,0-1.5.67-1.5,1.5v2.5h-7V1.5c0-.83-.67-1.5-1.5-1.5h-5c-.83,0-1.5.67-1.5,1.5v12s0,.08.01.11c0,.04,0,.07.01.11.02.12.05.24.09.34,0,0,0,0,0,.01.05.12.12.22.19.33,0,.01.01.03.02.04l7.67,9.53v16.85l-7.56,7.5s0,0,0,0c-.09.09-.17.2-.24.32-.02.03-.03.05-.04.08-.06.12-.11.24-.13.37,0,0,0,0,0,0-.02.09-.03.19-.03.29v7.56H1.5c-.83,0-1.5.67-1.5,1.5v7c0,.83.67,1.5,1.5,1.5h50c.83,0,1.5-.67,1.5-1.5v-7c0-.83-.67-1.5-1.5-1.5ZM8,3h2v2.5c0,.83.67,1.5,1.5,1.5h10c.83,0,1.5-.67,1.5-1.5v-2.5h7v2.5c0,.83.67,1.5,1.5,1.5h10c.83,0,1.5-.67,1.5-1.5v-2.5h2v9H8V3ZM9.63,15h33.73l-5.58,6.94H15.22l-5.58-6.94ZM37,24.94v15h-21v-15h21ZM15.12,42.94h22.76l4.98,4.94H10.14l4.98-4.94ZM8,50.88h37v6H8v-6ZM50,63.94H3v-4h47v4Z"/>
</svg>