<?xml version="1.0" encoding="UTF-8"?>
<svg id="_ÎÓÈ_1" data-name="—ÎÓÈ_1" xmlns="http://www.w3.org/2000/svg" viewBox="0 0 78.34 75.38">
  <defs>
    <style>
      .cls-1 {
        fill: #040607;
      }

      .cls-1, .cls-2 {
        stroke-width: 0px;
      }

      .cls-2 {
        fill: #fff;
      }
    </style>
  </defs>
  <path class="cls-2" d="M39.17,49.78c-4.04,0-7.68,2.1-10.3,4.19,3.63-.56,7.77-.66,10.3-.66s6.68.1,10.3.66c-2.62-2.09-6.26-4.19-10.3-4.19Z"/>
  <path class="cls-2" d="M25.37,57.86c1.94.7,6.61,1.55,13.8,1.55s11.85-.85,13.8-1.55c-1.94-.7-6.6-1.55-13.8-1.55s-11.85.85-13.8,1.55Z"/>
  <path class="cls-1" d="M78.22,62.83c-.16-.37-.45-.66-.82-.81-2.86-1.16-5.75-1.72-8.83-1.72-3.32,0-6.24.66-8.81,1.24-3.51.79-5.68,1.17-7.62.44-.29-.11-.59-.3-.89-.55,3.12-.66,5.5-1.76,5.5-3.57,0-.59-.26-1.1-.71-1.55l.02-.02c-.15-.2-2.11-2.71-5.26-5.1,4.42-3.21,7.86-8.26,7.86-14.94,0-10.05-6.17-22.73-14.36-26.3.86-1.06,1.36-2.38,1.36-3.77,0-3.41-2.92-6.18-6.5-6.18s-6.5,2.77-6.5,6.18c0,1.39.5,2.71,1.36,3.77-8.19,3.57-14.36,16.25-14.36,26.3,0,6.69,3.44,11.74,7.86,14.94-3.15,2.39-5.11,4.9-5.26,5.1l.02.02c-.45.45-.71.96-.71,1.55,0,1.81,2.38,2.9,5.5,3.57-.3.25-.6.44-.89.55-1.94.73-4.11.35-7.62-.44-2.57-.58-5.48-1.23-8.81-1.23-3.08,0-5.96.56-8.83,1.72-.37.15-.66.44-.82.81-.16.37-.16.78,0,1.15l3.75,9.27c.31.77,1.19,1.14,1.95.83,1.31-.53,2.57-.78,3.98-.78,1.83,0,3.73.43,5.93.92,2.42.55,5.17,1.17,8.14,1.17,2.45,0,4.72-.41,6.95-1.26,3.2-1.22,6-3.53,8.36-6.91,2.36,3.37,5.16,5.69,8.36,6.91,2.23.85,4.5,1.26,6.95,1.26,2.97,0,5.72-.62,8.15-1.17,2.2-.49,4.09-.92,5.92-.92,1.4,0,2.66.25,3.98.78.77.31,1.64-.06,1.95-.83l3.75-9.27c.15-.37.15-.78,0-1.15Z"/>
  <path class="cls-2" d="M45.17,28.21h-4.5v-7.5c0-.83-.67-1.5-1.5-1.5s-1.5.67-1.5,1.5v7.5h-4.5c-.83,0-1.5.67-1.5,1.5s.67,1.5,1.5,1.5h4.5v7.5c0,.83.67,1.5,1.5,1.5s1.5-.67,1.5-1.5v-7.5h4.5c.83,0,1.5-.67,1.5-1.5s-.67-1.5-1.5-1.5Z"/>
  <path class="cls-2" d="M39.17,49.78c4.04,0,7.68,2.1,10.3,4.19-3.63-.56-7.77-.66-10.3-.66s-6.68.1-10.3.66c2.62-2.09,6.26-4.19,10.3-4.19Z"/>
  <path class="cls-2" d="M25.37,57.86c1.94-.7,6.6-1.55,13.8-1.55s11.85.85,13.8,1.55c-1.94.7-6.61,1.55-13.8,1.55s-11.85-.85-13.8-1.55Z"/>
</svg>