<?xml version="1.0" encoding="UTF-8"?>
<svg id="_ÎÓÈ_1" data-name="—ÎÓÈ_1" xmlns="http://www.w3.org/2000/svg" viewBox="0 0 73.71 79.5">
  <defs>
    <style>
      .cls-1 {
        fill: #040607;
      }

      .cls-1, .cls-2 {
        stroke-width: 0px;
      }

      .cls-2 {
        fill: #fff;
      }
    </style>
  </defs>
  <path class="cls-1" d="M68.69,26.51c-3.46-3.67-9.43-4.71-15.59-2.73-2.05.66-3.96,1.61-5.72,2.77-.04-4.49-3.45-8.25-8.03-9.27v-4.29h5.5c1.38,0,2.5-1.12,2.5-2.5s-1.12-2.5-2.5-2.5h-5.5V2.5c0-1.38-1.12-2.5-2.5-2.5s-2.5,1.12-2.5,2.5v5.5h-5.5c-1.38,0-2.5,1.12-2.5,2.5s1.12,2.5,2.5,2.5h5.5v4.29c-4.58,1.02-7.99,4.78-8.03,9.27-1.76-1.17-3.67-2.11-5.72-2.77-6.16-1.99-12.13-.94-15.59,2.73-10.35,10.97-2.38,21.14,3.43,28.57,2.34,2.99,4.53,5.8,4.64,7.62-.09,1.52-.34,3.07-.74,4.6h0c-.41,1.56-.98,3.1-1.72,4.6-.27.35-.43.72-.49,1.12,0,.04,0,.09-.02.13,0,.07-.03.14-.03.22,0,0,0,.01,0,.02,0,.05.01.1.02.15.44,5.66,22.32,5.95,26.75,5.95s26.31-.29,26.75-5.95c0-.05.02-.1.02-.15,0,0,0-.01,0-.02,0-.07-.02-.14-.03-.22,0-.04,0-.09-.02-.13-.06-.4-.23-.77-.49-1.12-.73-1.51-1.31-3.04-1.72-4.6h0c-.4-1.53-.65-3.08-.74-4.61.11-1.82,2.3-4.63,4.64-7.62,5.81-7.43,13.77-17.61,3.43-28.57Z"/>
  <g>
    <path class="cls-2" d="M51.98,64.54c-1.29-.17-2.66-.35-4.04-.53-1.37-.2-2.79-.28-4.09-.42-1.31-.13-2.54-.24-3.61-.27-2.13-.1-3.55-.17-3.55-.17,0,0-5.73.26-11.19,1.03-2.73.43-5.44.84-7.38,1.24-1.97.38-3.29.63-3.29.63l.54,1.49s1.35-.16,3.37-.4c2.04-.27,4.68-.48,7.31-.7,5.32-.37,10.61-.25,10.61-.25,0,0,1.33-.03,3.32-.08,1-.04,2.17-.01,3.43.02,1.26.04,2.62.02,3.97.12,1.36.08,2.71.16,3.98.24,1.28.08,2.45.21,3.48.3,2.04.19,3.4.31,3.4.31l.58-1.48s-1.35-.22-3.37-.55c-1.02-.16-2.18-.38-3.47-.55Z"/>
    <path class="cls-2" d="M26.71,60.96c5.01-.37,9.99-.25,9.99-.25,0,0,1.25-.03,3.13-.08.94-.05,2.05-.02,3.24.02,1.19.04,2.47.02,3.74.12,1.28.08,2.56.16,3.76.24,1.21.08,2.32.21,3.28.3,1.93.19,3.21.31,3.21.31l.62-1.47s-1.27-.22-3.18-.55c-.96-.16-2.06-.38-3.28-.54-1.22-.17-2.52-.35-3.82-.53-1.29-.2-2.64-.28-3.88-.42-1.24-.12-2.41-.24-3.42-.27-2.02-.1-3.37-.17-3.37-.17,0,0-5.44.26-10.61,1.04-2.58.43-5.14.84-6.96,1.25-1.85.38-3.09.63-3.09.63l.57,1.49s1.27-.16,3.18-.4c1.93-.27,4.41-.48,6.89-.7Z"/>
    <path class="cls-2" d="M59.07,25.57c-.79,0-1.57.09-2.33.28-9.67,2.36-17.65,16.25-18.21,26.67-1.12-.04-2.24-.04-3.36-.02-.58-10.42-8.55-24.3-18.21-26.66-.76-.19-1.54-.28-2.33-.28-5.93,0-11.3,5.17-11.5,11.06-.21,6.34,4.41,12.11,7.9,15.9,1.66,1.8,3.22,3.3,4.77,4.58,18.66-4.06,23.87-3.99,42.11,0,1.54-1.28,3.1-2.78,4.77-4.58,3.49-3.79,8.11-9.56,7.9-15.9-.2-5.89-5.57-11.06-11.5-11.06ZM5.01,37.05c.15-2.78,1.47-5.15,3.91-7.04,1.69-1.28,3.57-1.93,5.59-1.93,3.32,0,6.84,1.76,9.93,4.95,3.23,3.34,5.98,7.66,7.95,12.49.95,2.33,1.55,4.39,1.83,6.28.03.17.05.33.07.48.01.1.03.18.04.25-5.34.22-11,1.21-19.02,2.96-3.34-3.25-10.7-11.27-10.3-18.44ZM58.26,55.62c-7.95-1.78-13.58-2.8-18.88-3.07.01-.08.03-.17.04-.28.02-.15.04-.31.07-.47.28-1.9.88-3.96,1.83-6.29,1.97-4.83,4.72-9.14,7.95-12.49,3.08-3.19,6.61-4.95,9.93-4.95,2.02,0,3.9.65,5.59,1.94,2.44,1.88,3.75,4.25,3.91,7.03.4,7.27-7.16,15.41-10.44,18.58Z"/>
    <path class="cls-2" d="M36.85,45.53l.6-.94c.94-1.46,9.09-14.39,7.07-19.32-1.41-3.44-4.13-5.35-7.67-5.37-3.54.03-6.27,1.93-7.67,5.37-2.02,4.93,6.14,17.86,7.07,19.32l.6.94ZM30.68,25.82c1.18-2.9,3.26-4.38,6.18-4.41h0c2.91.03,4.99,1.51,6.18,4.41,1.5,3.67-4.74,14.37-6,16.48l-.17.29-.17-.29c-1.27-2.11-7.51-12.81-6-16.48Z"/>
  </g>
</svg>