<?xml version="1.0" encoding="UTF-8"?>
<svg id="_ÎÓÈ_1" data-name="—ÎÓÈ_1" xmlns="http://www.w3.org/2000/svg" viewBox="0 0 81.63 74.98">
  <defs>
    <style>
      .cls-1 {
        fill: #040607;
      }

      .cls-1, .cls-2 {
        stroke-width: 0px;
      }

      .cls-2 {
        fill: #fff;
      }
    </style>
  </defs>
  <path class="cls-1" d="M75.13,10.44c-3.58,0-6.5,2.92-6.5,6.5,0,1.12.29,2.18.79,3.11-3.09,1.66-7.74,7.87-11.58,14.71,1.85-9.56,2.77-15.19,2.11-18,2.98-.59,5.23-3.23,5.23-6.37,0-3.58-2.92-6.5-6.5-6.5s-6.5,2.92-6.5,6.5c0,2.17,1.07,4.09,2.71,5.27-2.53,2.23-5.23,7.28-7.45,13.26-.44-6.5-1.35-13.37-3.23-16.88,1.86-1.15,3.1-3.19,3.1-5.53,0-3.58-2.92-6.5-6.5-6.5s-6.5,2.92-6.5,6.5c0,2.34,1.25,4.39,3.1,5.53-1.88,3.51-2.79,10.38-3.23,16.88-2.22-5.99-4.92-11.04-7.45-13.26,1.64-1.18,2.71-3.1,2.71-5.27,0-3.58-2.92-6.5-6.5-6.5s-6.5,2.92-6.5,6.5c0,3.15,2.25,5.78,5.23,6.37-.65,2.82.27,8.44,2.11,18-3.85-6.85-8.49-13.06-11.58-14.71.5-.92.79-1.98.79-3.11,0-3.58-2.92-6.5-6.5-6.5S0,13.35,0,16.94s2.92,6.5,6.5,6.5c.88,0,1.71-.18,2.47-.49.42,1.7,1.61,4.33,3.74,8.9,2.17,4.66,4.86,10.46,6.89,16.26.03.23.07.45.15.68,1.25,6.12.72,12.4-1.5,18.22-.24.38-.39.79-.42,1.23,0,.02,0,.05,0,.07,0,.06-.01.11-.01.16,0,.03,0,.06,0,.1,0,.03,0,.06,0,.09.36,4.97,14.55,6.31,22.98,6.31s22.63-1.34,22.98-6.31c0-.03,0-.06,0-.09,0-.03,0-.06,0-.1,0-.06-.01-.11-.01-.16,0-.02,0-.05,0-.07-.04-.44-.18-.85-.42-1.23-2.22-5.82-2.75-12.1-1.5-18.22,1.99-5.7,4.68-11.57,6.84-16.3,2.24-4.88,3.5-7.73,3.93-9.55.77.32,1.6.5,2.48.5,3.58,0,6.5-2.92,6.5-6.5s-2.92-6.5-6.5-6.5Z"/>
  <path class="cls-2" d="M58.97,60.72l-.47,1.48s-1.13-.11-2.82-.28c-.85-.08-1.83-.2-2.88-.27-1.05-.07-2.18-.14-3.3-.21-1.12-.09-2.24-.06-3.29-.09-1.05-.02-2.02-.04-2.85.01-1.65.06-2.75.11-2.75.11,0,0-4.39-.07-8.79.34-2.18.25-4.36.47-6.06.77-1.67.26-2.79.43-2.79.43l-.46-1.49s1.09-.26,2.72-.66c1.61-.42,3.85-.86,6.11-1.31,4.53-.82,9.27-1.13,9.27-1.13,0,0,1.18.05,2.95.14.89.02,1.9.13,2.99.24,1.08.13,2.26.19,3.4.38,1.14.17,2.28.34,3.35.5,1.07.16,2.04.37,2.88.52,1.68.31,2.8.52,2.8.52Z"/>
  <path class="cls-2" d="M57.99,55.22l-.5,1.48s-1.07-.11-2.67-.28c-.8-.08-1.72-.2-2.72-.27-1-.07-2.06-.14-3.12-.21-1.06-.09-2.12-.06-3.1-.09-.99-.02-1.9-.04-2.69.01-1.56.06-2.59.11-2.59.11,0,0-4.13-.07-8.28.34-2.05.25-4.11.47-5.71.76-1.58.25-2.63.42-2.63.42l-.48-1.48s1.02-.26,2.56-.66c1.51-.42,3.62-.86,5.76-1.31,4.28-.82,8.79-1.13,8.79-1.13,0,0,1.12.05,2.8.14.84.02,1.81.13,2.84.24,1.03.13,2.15.19,3.22.38,1.08.17,2.16.34,3.17.5,1.01.16,1.92.37,2.72.52,1.58.31,2.64.52,2.64.52Z"/>
  <path class="cls-2" d="M58.48,49.71l-.49,1.48s-1.1-.11-2.74-.28c-.82-.08-1.77-.2-2.8-.27-1.02-.07-2.12-.14-3.21-.21-1.09-.09-2.18-.06-3.2-.09-1.02-.02-1.96-.04-2.77.01-1.61.06-2.67.11-2.67.11,0,0-4.26-.07-8.54.34-2.12.25-4.24.47-5.88.76-1.63.26-2.71.43-2.71.43l-.47-1.48s1.06-.26,2.64-.66c1.56-.42,3.74-.86,5.94-1.31,4.4-.82,9.03-1.13,9.03-1.13,0,0,1.15.05,2.87.14.86.02,1.86.13,2.92.24,1.06.13,2.2.19,3.31.38,1.11.17,2.22.34,3.26.5,1.04.16,1.98.37,2.8.51,1.63.31,2.72.52,2.72.52Z"/>
</svg>