<?xml version="1.0" encoding="UTF-8"?>
<svg id="_ÎÓÈ_1" data-name="—ÎÓÈ_1" xmlns="http://www.w3.org/2000/svg" viewBox="0 0 53 66.94">
  <defs>
    <style>
      .cls-1 {
        fill: #040607;
      }

      .cls-1, .cls-2 {
        stroke-width: 0px;
      }

      .cls-2 {
        fill: #fff;
      }
    </style>
  </defs>
  <path class="cls-1" d="M51.5,56.94h-3.5v-7.56c0-.1-.01-.2-.03-.29,0,0,0,0,0,0-.03-.13-.07-.25-.13-.37-.01-.03-.03-.05-.04-.08-.07-.11-.14-.22-.24-.32,0,0,0,0,0,0l-7.56-7.5v-16.85l7.67-9.53s.01-.03.02-.04c.08-.1.15-.21.19-.33,0,0,0,0,0-.01.05-.11.07-.23.09-.35,0-.04,0-.07.01-.11,0-.04.01-.07.01-.11V1.5c0-.83-.67-1.5-1.5-1.5h-5c-.83,0-1.5.67-1.5,1.5v2.5h-7V1.5c0-.83-.67-1.5-1.5-1.5h-10c-.83,0-1.5.67-1.5,1.5v2.5h-7V1.5c0-.83-.67-1.5-1.5-1.5h-5c-.83,0-1.5.67-1.5,1.5v12s0,.08.01.11c0,.04,0,.07.01.11.02.12.04.24.09.35,0,0,0,0,0,.01.05.12.12.22.19.33,0,.01.01.03.02.04l7.67,9.53v16.85l-7.56,7.5s0,0,0,0c-.1.09-.17.2-.24.32-.02.03-.03.05-.04.08-.06.12-.11.24-.13.37,0,0,0,0,0,0-.02.09-.03.19-.03.29v7.56H1.5c-.83,0-1.5.67-1.5,1.5v7c0,.83.67,1.5,1.5,1.5h50c.83,0,1.5-.67,1.5-1.5v-7c0-.83-.67-1.5-1.5-1.5Z"/>
  <path class="cls-2" d="M43.5,15c.83,0,1.5-.67,1.5-1.5s-.67-1.5-1.5-1.5H9.5c-.83,0-1.5.67-1.5,1.5s.67,1.5,1.5,1.5h34Z"/>
  <path class="cls-2" d="M38,41.44c0-.83-.67-1.5-1.5-1.5h-20c-.83,0-1.5.67-1.5,1.5s.67,1.5,1.5,1.5h20c.83,0,1.5-.67,1.5-1.5Z"/>
  <path class="cls-2" d="M45,49.38c0-.83-.67-1.5-1.5-1.5H9.5c-.83,0-1.5.67-1.5,1.5s.67,1.5,1.5,1.5h34c.83,0,1.5-.67,1.5-1.5Z"/>
  <path class="cls-2" d="M45,56.47c0-.83-.67-1.5-1.5-1.5H9.5c-.83,0-1.5.67-1.5,1.5,0,.14.03.28.06.41,0,.02.01.04.02.06.2.6.75,1.03,1.42,1.03h34c.66,0,1.22-.43,1.42-1.03,0-.02.01-.04.02-.06.04-.13.06-.27.06-.41Z"/>
  <path class="cls-2" d="M38,23.44c0-.83-.67-1.5-1.5-1.5h-20c-.83,0-1.5.67-1.5,1.5s.67,1.5,1.5,1.5h20c.83,0,1.5-.67,1.5-1.5Z"/>
</svg>