<?xml version="1.0" encoding="UTF-8"?>
<svg id="_ÎÓÈ_1" data-name="—ÎÓÈ_1" xmlns="http://www.w3.org/2000/svg" viewBox="0 0 78.34 75.38">
  <defs>
    <style>
      .cls-1 {
        fill: #040607;
      }

      .cls-1, .cls-2 {
        stroke-width: 0px;
      }

      .cls-2 {
        fill: #fff;
      }
    </style>
  </defs>
  <path class="cls-2" d="M55.67,36.25c0-10.85-7.67-23.3-14.91-24.22-.69-.09-1.23-.64-1.3-1.33-.07-.69.33-1.34.99-1.58,1.35-.48,2.23-1.64,2.23-2.95,0-1.75-1.57-3.18-3.5-3.18s-3.5,1.42-3.5,3.18c0,1.31.87,2.47,2.23,2.95.65.23,1.06.88.99,1.58-.07.69-.61,1.24-1.3,1.33-7.25.92-14.91,13.37-14.91,24.22,0,6.33,3.5,10.62,7.55,13.16,2.56-1.48,5.6-2.62,8.95-2.62s6.39,1.14,8.95,2.62c4.05-2.54,7.55-6.83,7.55-13.16ZM45.17,31.21h-4.5v7.5c0,.83-.67,1.5-1.5,1.5s-1.5-.67-1.5-1.5v-7.5h-4.5c-.83,0-1.5-.67-1.5-1.5s.67-1.5,1.5-1.5h4.5v-7.5c0-.83.67-1.5,1.5-1.5s1.5.67,1.5,1.5v7.5h4.5c.83,0,1.5.67,1.5,1.5s-.67,1.5-1.5,1.5Z"/>
  <path class="cls-2" d="M30.63,61.98c-1.06,1.41-2.19,2.35-3.37,2.79-1.07.4-2.18.6-3.4.6-1.74,0-3.56-.38-5.94-.91-2.42-.55-5.16-1.16-8.15-1.16-2.18,0-4.25.33-6.29.99l2.64,6.51c1.2-.34,2.41-.51,3.68-.51,2.16,0,4.21.46,6.58.99,2.39.54,4.85,1.1,7.49,1.1,2.08,0,4-.35,5.88-1.06,3.14-1.2,5.88-3.77,8.13-7.65.27-.46.76-.75,1.3-.75s1.03.29,1.3.75c2.25,3.88,4.98,6.46,8.13,7.65,1.88.72,3.81,1.06,5.88,1.06,2.64,0,5.1-.56,7.48-1.09,2.28-.51,4.42-1,6.59-1,1.27,0,2.48.17,3.68.51l2.64-6.51c-2.04-.66-4.11-.99-6.29-.99-2.99,0-5.73.62-8.15,1.16-2.38.54-4.2.92-5.94.92-1.22,0-2.34-.2-3.4-.6-1.18-.45-2.31-1.39-3.37-2.79-3.14.35-6.41.43-8.54.43s-5.4-.07-8.54-.43Z"/>
  <path class="cls-2" d="M39.17,49.78c-4.04,0-7.68,2.1-10.3,4.19,3.63-.56,7.77-.66,10.3-.66s6.68.1,10.3.66c-2.62-2.09-6.26-4.19-10.3-4.19Z"/>
  <path class="cls-2" d="M25.37,57.86c1.94.7,6.61,1.55,13.8,1.55s11.85-.85,13.8-1.55c-1.94-.7-6.6-1.55-13.8-1.55s-11.85.85-13.8,1.55Z"/>
  <path class="cls-1" d="M77.4,62.02c-2.86-1.16-5.75-1.72-8.83-1.72-3.32,0-6.24.66-8.81,1.24-3.51.79-5.68,1.17-7.62.44-.29-.11-.59-.29-.89-.55,3.12-.66,5.5-1.76,5.5-3.57,0-.59-.26-1.1-.71-1.55l.02-.02c-.15-.2-2.11-2.71-5.26-5.1,4.42-3.21,7.86-8.26,7.86-14.94,0-10.05-6.17-22.73-14.36-26.3.86-1.06,1.36-2.38,1.36-3.77,0-3.41-2.92-6.18-6.5-6.18s-6.5,2.77-6.5,6.18c0,1.39.5,2.71,1.36,3.77-8.19,3.57-14.36,16.25-14.36,26.3,0,6.69,3.44,11.74,7.86,14.94-3.15,2.39-5.11,4.9-5.26,5.1l.02.02c-.45.45-.71.96-.71,1.55,0,1.81,2.38,2.9,5.5,3.57-.3.25-.6.44-.89.55-1.94.73-4.11.35-7.62-.44-2.57-.58-5.48-1.24-8.81-1.24-3.08,0-5.96.56-8.83,1.72-.37.15-.66.44-.82.81-.16.37-.16.78,0,1.15l3.75,9.27c.31.77,1.19,1.13,1.95.83,1.31-.53,2.57-.78,3.98-.78,1.83,0,3.73.43,5.93.92,2.42.55,5.17,1.17,8.14,1.17,2.45,0,4.72-.41,6.95-1.26,3.2-1.22,6-3.54,8.36-6.91,2.36,3.37,5.16,5.69,8.36,6.91,2.23.85,4.5,1.26,6.95,1.26,2.97,0,5.72-.62,8.15-1.17,2.2-.49,4.09-.92,5.92-.92,1.4,0,2.66.25,3.98.78.77.31,1.64-.06,1.95-.83l3.75-9.27c.15-.37.15-.78,0-1.15-.16-.37-.45-.66-.82-.81ZM22.67,36.25c0-10.85,7.67-23.3,14.91-24.22.69-.09,1.23-.64,1.3-1.33.07-.69-.33-1.34-.99-1.58-1.35-.48-2.23-1.64-2.23-2.95,0-1.75,1.57-3.18,3.5-3.18s3.5,1.42,3.5,3.18c0,1.31-.87,2.47-2.23,2.95-.65.23-1.06.88-.99,1.58.07.69.61,1.24,1.3,1.33,7.25.92,14.91,13.37,14.91,24.22,0,6.33-3.5,10.62-7.55,13.16-2.56-1.48-5.6-2.62-8.95-2.62s-6.39,1.14-8.95,2.62c-4.05-2.54-7.55-6.83-7.55-13.16ZM39.17,49.78c4.04,0,7.68,2.1,10.3,4.19-3.63-.56-7.77-.66-10.3-.66s-6.68.1-10.3.66c2.62-2.09,6.26-4.19,10.3-4.19ZM25.37,57.86c1.94-.7,6.6-1.55,13.8-1.55s11.85.85,13.8,1.55c-1.94.7-6.61,1.55-13.8,1.55s-11.85-.85-13.8-1.55ZM72.23,70.8c-1.2-.34-2.41-.51-3.68-.51-2.16,0-4.31.48-6.59,1-2.38.54-4.84,1.09-7.48,1.09-2.08,0-4-.35-5.88-1.06-3.14-1.2-5.88-3.77-8.13-7.65-.27-.46-.76-.75-1.3-.75s-1.03.29-1.3.75c-2.25,3.88-4.98,6.46-8.13,7.65-1.88.72-3.81,1.06-5.88,1.06-2.64,0-5.1-.56-7.49-1.1-2.37-.53-4.42-.99-6.58-.99-1.27,0-2.48.17-3.68.51l-2.64-6.51c2.04-.66,4.11-.99,6.29-.99,2.99,0,5.73.62,8.15,1.16,2.38.54,4.19.91,5.94.91,1.22,0,2.34-.2,3.4-.6,1.18-.45,2.31-1.39,3.37-2.79,3.14.35,6.41.43,8.54.43s5.4-.07,8.54-.43c1.06,1.41,2.19,2.35,3.37,2.79,1.07.4,2.18.6,3.4.6,1.74,0,3.56-.38,5.94-.92,2.42-.54,5.16-1.16,8.15-1.16,2.18,0,4.25.33,6.29.99l-2.64,6.51Z"/>
  <path class="cls-1" d="M40.67,38.71v-7.5h4.5c.83,0,1.5-.67,1.5-1.5s-.67-1.5-1.5-1.5h-4.5v-7.5c0-.83-.67-1.5-1.5-1.5s-1.5.67-1.5,1.5v7.5h-4.5c-.83,0-1.5.67-1.5,1.5s.67,1.5,1.5,1.5h4.5v7.5c0,.83.67,1.5,1.5,1.5s1.5-.67,1.5-1.5Z"/>
</svg>