<?xml version="1.0" encoding="UTF-8"?>
<svg id="_ÎÓÈ_1" data-name="—ÎÓÈ_1" xmlns="http://www.w3.org/2000/svg" viewBox="0 0 81.63 74.98">
  <defs>
    <style>
      .cls-1 {
        fill: #040607;
      }

      .cls-1, .cls-2 {
        stroke-width: 0px;
      }

      .cls-2 {
        fill: #fff;
      }
    </style>
  </defs>
  <path class="cls-2" d="M65.98,31.24c1.18-2.58,2.47-5.39,3.21-7.32-2.93,2.91-8.22,10.21-12.08,18.88,1.25.44,2.34.96,3.18,1.6,1.82-4.7,3.93-9.31,5.69-13.17Z"/>
  <path class="cls-2" d="M15.43,30.59c1.85,3.98,4.08,8.79,5.98,13.76.83-.61,1.89-1.12,3.1-1.54-3.84-8.63-9.1-15.91-12.04-18.84.71,1.79,1.88,4.3,2.96,6.62Z"/>
  <path class="cls-2" d="M57.11,17.58c-1.85,1.23-6.4,8.95-9.32,20.13.02,1.25.03,2.39.03,3.34,1.8.16,3.74.41,5.59.78.29-1.52.59-3.03.87-4.49,1.51-7.75,3.37-17.26,2.83-19.76Z"/>
  <path class="cls-2" d="M33.84,37.71c-2.9-11.1-7.4-18.79-9.33-20.11-.52,2.54,1.33,12.01,2.84,19.73.29,1.46.58,2.97.87,4.49,1.85-.37,3.79-.61,5.59-.78,0-.95,0-2.08.03-3.34Z"/>
  <path class="cls-2" d="M41.35,12.97c-.18.01-.36.03-.54.03s-.37-.01-.55-.03c-1.38,2-3.46,10.09-3.45,27.86,1.83-.09,3.28-.11,4.01-.11s2.18.01,4.01.11c0-17.78-2.08-25.87-3.47-27.86Z"/>
  <path class="cls-2" d="M58.23,54.32c.06-2.08.29-4.17.72-6.24.02-.08.04-.16.07-.23.09-.24.07-.38-.07-.59-1.18-1.71-7.94-3.53-18.14-3.53s-16.96,1.82-18.14,3.53c-.14.21-.16.35-.07.59.03.07.05.15.07.23.42,2.03.65,4.08.72,6.12,12.79-3.15,21.53-3.11,34.84.12Z"/>
  <path class="cls-2" d="M40.81,61.98c5.55,0,13.59.58,18.55,2.39-.6-2.28-.97-4.61-1.1-6.96-13.6-3.38-21.87-3.42-34.89-.12-.13,2.38-.5,4.75-1.1,7.07,4.96-1.81,13-2.39,18.55-2.39Z"/>
  <path class="cls-2" d="M40.81,10c1.93,0,3.5-1.57,3.5-3.5s-1.57-3.5-3.5-3.5-3.5,1.57-3.5,3.5,1.57,3.5,3.5,3.5Z"/>
  <path class="cls-2" d="M10,16.94c0-1.93-1.57-3.5-3.5-3.5s-3.5,1.57-3.5,3.5,1.57,3.5,3.5,3.5,3.5-1.57,3.5-3.5Z"/>
  <path class="cls-2" d="M22.95,13.88c1.93,0,3.5-1.57,3.5-3.5s-1.57-3.5-3.5-3.5-3.5,1.57-3.5,3.5,1.57,3.5,3.5,3.5Z"/>
  <path class="cls-2" d="M75.13,13.44c-1.93,0-3.5,1.57-3.5,3.5s1.57,3.5,3.5,3.5,3.5-1.57,3.5-3.5-1.57-3.5-3.5-3.5Z"/>
  <path class="cls-2" d="M62.18,10.38c0-1.93-1.57-3.5-3.5-3.5s-3.5,1.57-3.5,3.5,1.57,3.5,3.5,3.5,3.5-1.57,3.5-3.5Z"/>
  <path class="cls-2" d="M60.78,68.48c-.85-1.3-7.97-3.5-19.97-3.5s-19.12,2.2-19.97,3.5c.85,1.3,7.97,3.5,19.97,3.5s19.12-2.2,19.97-3.5Z"/>
  <path class="cls-1" d="M75.13,10.44c-3.58,0-6.5,2.92-6.5,6.5,0,1.12.29,2.18.79,3.11-3.09,1.65-7.74,7.87-11.58,14.71,1.85-9.56,2.77-15.19,2.11-18,2.98-.59,5.23-3.22,5.23-6.37,0-3.58-2.92-6.5-6.5-6.5s-6.5,2.92-6.5,6.5c0,2.17,1.07,4.09,2.71,5.27-2.53,2.23-5.23,7.28-7.45,13.26-.44-6.5-1.35-13.37-3.23-16.88,1.86-1.14,3.1-3.19,3.1-5.53,0-3.58-2.92-6.5-6.5-6.5s-6.5,2.92-6.5,6.5c0,2.34,1.25,4.39,3.1,5.53-1.88,3.51-2.79,10.38-3.23,16.88-2.22-5.99-4.92-11.04-7.45-13.26,1.64-1.18,2.71-3.1,2.71-5.27,0-3.58-2.92-6.5-6.5-6.5s-6.5,2.92-6.5,6.5c0,3.15,2.25,5.78,5.23,6.37-.65,2.82.27,8.44,2.11,18-3.85-6.84-8.49-13.05-11.58-14.71.5-.92.79-1.98.79-3.11,0-3.58-2.92-6.5-6.5-6.5S0,13.35,0,16.94s2.92,6.5,6.5,6.5c.88,0,1.71-.18,2.47-.49.42,1.7,1.61,4.33,3.74,8.9,2.17,4.66,4.86,10.46,6.89,16.26.03.23.07.45.15.68,1.25,6.12.72,12.4-1.5,18.22-.24.38-.39.79-.42,1.23,0,.02,0,.05,0,.07,0,.06-.01.11-.01.16,0,.03,0,.06,0,.1,0,.03,0,.06,0,.09.36,4.97,14.55,6.31,22.98,6.31s22.63-1.34,22.98-6.31c0-.03,0-.06,0-.09,0-.03,0-.06,0-.1,0-.06-.01-.11-.01-.16,0-.02,0-.05,0-.07-.04-.44-.18-.85-.42-1.23-2.22-5.83-2.75-12.1-1.5-18.22,1.99-5.7,4.68-11.58,6.84-16.3,2.24-4.88,3.5-7.73,3.93-9.55.77.32,1.6.5,2.48.5,3.58,0,6.5-2.92,6.5-6.5s-2.92-6.5-6.5-6.5ZM6.5,20.44c-1.93,0-3.5-1.57-3.5-3.5s1.57-3.5,3.5-3.5,3.5,1.57,3.5,3.5-1.57,3.5-3.5,3.5ZM23.37,57.3c13.03-3.3,21.3-3.26,34.89.12.13,2.35.5,4.67,1.1,6.96-4.96-1.81-13-2.39-18.55-2.39s-13.59.58-18.55,2.39c.61-2.32.98-4.69,1.1-7.07ZM59.02,47.85c-.03.07-.05.15-.07.23-.43,2.07-.66,4.16-.72,6.24-13.31-3.23-22.06-3.27-34.84-.12-.07-2.04-.29-4.09-.72-6.12-.02-.08-.04-.16-.07-.23-.09-.24-.07-.38.07-.59,1.18-1.71,7.94-3.53,18.14-3.53s16.96,1.82,18.14,3.53c.14.21.16.35.07.59ZM58.68,6.88c1.93,0,3.5,1.57,3.5,3.5s-1.57,3.5-3.5,3.5-3.5-1.57-3.5-3.5,1.57-3.5,3.5-3.5ZM57.11,17.58c.54,2.49-1.32,12.01-2.83,19.76-.28,1.46-.58,2.97-.87,4.49-1.85-.37-3.79-.61-5.59-.78,0-.95,0-2.08-.03-3.34,2.92-11.19,7.47-18.91,9.32-20.13ZM37.31,6.5c0-1.93,1.57-3.5,3.5-3.5s3.5,1.57,3.5,3.5-1.57,3.5-3.5,3.5-3.5-1.57-3.5-3.5ZM40.26,12.97c.18.02.37.03.55.03s.36-.01.54-.03c1.39,2,3.47,10.09,3.47,27.86-1.83-.09-3.28-.11-4.01-.11s-2.18.01-4.01.11c0-17.78,2.08-25.87,3.45-27.86ZM33.84,37.71c-.02,1.26-.03,2.39-.03,3.34-1.8.16-3.74.41-5.59.78-.29-1.52-.59-3.03-.87-4.49-1.51-7.72-3.36-17.19-2.84-19.73,1.92,1.32,6.43,9,9.33,20.11ZM19.45,10.38c0-1.93,1.57-3.5,3.5-3.5s3.5,1.57,3.5,3.5-1.57,3.5-3.5,3.5-3.5-1.57-3.5-3.5ZM12.47,23.96c2.94,2.93,8.2,10.21,12.04,18.84-1.21.42-2.27.93-3.1,1.54-1.9-4.97-4.13-9.78-5.98-13.76-1.08-2.32-2.25-4.83-2.96-6.62ZM40.81,71.98c-11.99,0-19.12-2.2-19.97-3.5.85-1.3,7.97-3.5,19.97-3.5s19.12,2.2,19.97,3.5c-.85,1.3-7.97,3.5-19.97,3.5ZM65.98,31.24c-1.76,3.85-3.87,8.47-5.69,13.17-.84-.64-1.94-1.17-3.18-1.6,3.86-8.67,9.15-15.97,12.08-18.88-.74,1.93-2.03,4.74-3.21,7.32ZM75.13,20.44c-1.93,0-3.5-1.57-3.5-3.5s1.57-3.5,3.5-3.5,3.5,1.57,3.5,3.5-1.57,3.5-3.5,3.5Z"/>
</svg>